<mxfile host="Electron" modified="2024-03-09T02:12:15.868Z" agent="Mozilla/5.0 (Windows NT 10.0; Win64; x64) AppleWebKit/537.36 (KHTML, like Gecko) draw.io/23.1.5 Chrome/120.0.6099.109 Electron/28.1.0 Safari/537.36" etag="gZRw27Ou70aSv7kCsN7f" version="23.1.5" type="device">
  <diagram name="Page-1" id="W-hvJWC9LnS0oZOQdCDl">
    <mxGraphModel dx="2849" dy="1594" grid="1" gridSize="10" guides="1" tooltips="1" connect="1" arrows="1" fold="1" page="0" pageScale="1" pageWidth="850" pageHeight="1100" math="0" shadow="0">
      <root>
        <mxCell id="0" />
        <mxCell id="1" parent="0" />
        <mxCell id="JZciVl0iC011m3xnHKb6-115" value="" style="rounded=0;whiteSpace=wrap;html=1;fontColor=default;fillColor=none;strokeWidth=4;" parent="1" vertex="1">
          <mxGeometry x="390" y="790" width="790" height="610" as="geometry" />
        </mxCell>
        <mxCell id="JZciVl0iC011m3xnHKb6-93" value="" style="rounded=0;whiteSpace=wrap;html=1;fontColor=default;fillColor=none;strokeWidth=4;" parent="1" vertex="1">
          <mxGeometry x="-650" y="720" width="1020" height="680" as="geometry" />
        </mxCell>
        <mxCell id="OUGzcpc-ft89BkLeORVE-1" value="ElevatorNode" style="swimlane;fontStyle=1;align=center;verticalAlign=top;childLayout=stackLayout;horizontal=1;startSize=26;horizontalStack=0;resizeParent=1;resizeParentMax=0;resizeLast=0;collapsible=1;marginBottom=0;whiteSpace=wrap;html=1;" parent="1" vertex="1">
          <mxGeometry x="-20" y="-40" width="320" height="306" as="geometry" />
        </mxCell>
        <mxCell id="JZciVl0iC011m3xnHKb6-45" value="- nextId: int" style="text;strokeColor=none;fillColor=none;align=left;verticalAlign=top;spacingLeft=4;spacingRight=4;overflow=hidden;rotatable=0;points=[[0,0.5],[1,0.5]];portConstraint=eastwest;whiteSpace=wrap;html=1;fontStyle=4" parent="OUGzcpc-ft89BkLeORVE-1" vertex="1">
          <mxGeometry y="26" width="320" height="24" as="geometry" />
        </mxCell>
        <mxCell id="OUGzcpc-ft89BkLeORVE-2" value="- id: int&lt;br&gt;- currentFloor: int&lt;br&gt;- sSocket: DatagramSocket&lt;br&gt;- rSocket: DatagramSocket&lt;br&gt;- altitude: float&lt;br&gt;- velocity: float&lt;br&gt;- state: ElevatorState&lt;br&gt;- destinations: ArrayList&amp;lt;Integer&amp;gt;&lt;br&gt;- log: ArrayList&amp;lt;Event&amp;gt;&lt;br&gt;- pendingInstructions: ArrayList&amp;lt;Instruction&amp;gt;" style="text;strokeColor=none;fillColor=none;align=left;verticalAlign=top;spacingLeft=4;spacingRight=4;overflow=hidden;rotatable=0;points=[[0,0.5],[1,0.5]];portConstraint=eastwest;whiteSpace=wrap;html=1;" parent="OUGzcpc-ft89BkLeORVE-1" vertex="1">
          <mxGeometry y="50" width="320" height="160" as="geometry" />
        </mxCell>
        <mxCell id="OUGzcpc-ft89BkLeORVE-3" value="" style="line;strokeWidth=1;fillColor=none;align=left;verticalAlign=middle;spacingTop=-1;spacingLeft=3;spacingRight=3;rotatable=0;labelPosition=right;points=[];portConstraint=eastwest;strokeColor=inherit;" parent="OUGzcpc-ft89BkLeORVE-1" vertex="1">
          <mxGeometry y="210" width="320" height="8" as="geometry" />
        </mxCell>
        <mxCell id="OUGzcpc-ft89BkLeORVE-4" value="+ ElevatorNode(): ElevatorNode&lt;br&gt;+ setState(state: ElevatorState): void&lt;br&gt;+ getPickupIndex(pickup: int): int&lt;br&gt;+ addPickup(instruction: Instruction): void&lt;br&gt;+ run(): void" style="text;strokeColor=none;fillColor=none;align=left;verticalAlign=top;spacingLeft=4;spacingRight=4;overflow=hidden;rotatable=0;points=[[0,0.5],[1,0.5]];portConstraint=eastwest;whiteSpace=wrap;html=1;" parent="OUGzcpc-ft89BkLeORVE-1" vertex="1">
          <mxGeometry y="218" width="320" height="88" as="geometry" />
        </mxCell>
        <mxCell id="OUGzcpc-ft89BkLeORVE-5" value="SchedulerSystem" style="swimlane;fontStyle=1;align=center;verticalAlign=top;childLayout=stackLayout;horizontal=1;startSize=26;horizontalStack=0;resizeParent=1;resizeParentMax=0;resizeLast=0;collapsible=1;marginBottom=0;whiteSpace=wrap;html=1;" parent="1" vertex="1">
          <mxGeometry x="450" y="4" width="370" height="250" as="geometry" />
        </mxCell>
        <mxCell id="OUGzcpc-ft89BkLeORVE-6" value="&lt;u&gt;- instructions BlockingQueue&amp;lt;Instruction&lt;/u&gt;&lt;u&gt;&amp;gt;&lt;br&gt;- log: ArrayList&amp;lt;Event&amp;gt;&lt;br&gt;- state: SchedulerState&lt;br&gt;- rSocket: DatagramSocket&lt;br&gt;- sSocket: DatagramSocket&lt;br&gt;- elevators: HashMap&amp;lt;Integer, Integer&amp;gt;&lt;br&gt;- floors: HashMap&amp;lt;Integer, Integer&amp;gt;&lt;br&gt;&lt;/u&gt;" style="text;strokeColor=none;fillColor=none;align=left;verticalAlign=top;spacingLeft=4;spacingRight=4;overflow=hidden;rotatable=0;points=[[0,0.5],[1,0.5]];portConstraint=eastwest;whiteSpace=wrap;html=1;" parent="OUGzcpc-ft89BkLeORVE-5" vertex="1">
          <mxGeometry y="26" width="370" height="114" as="geometry" />
        </mxCell>
        <mxCell id="OUGzcpc-ft89BkLeORVE-7" value="" style="line;strokeWidth=1;fillColor=none;align=left;verticalAlign=middle;spacingTop=-1;spacingLeft=3;spacingRight=3;rotatable=0;labelPosition=right;points=[];portConstraint=eastwest;strokeColor=inherit;" parent="OUGzcpc-ft89BkLeORVE-5" vertex="1">
          <mxGeometry y="140" width="370" height="8" as="geometry" />
        </mxCell>
        <mxCell id="OUGzcpc-ft89BkLeORVE-8" value="&lt;u&gt;+ addInstruction(instruction: Instruction): void&lt;/u&gt;&lt;br&gt;&lt;u&gt;+ getInstruction(): Instruction&lt;/u&gt;&lt;br&gt;+ getElapsedTime(): long&lt;br&gt;+ setState(state: SchedulerState): void&lt;br&gt;&lt;u&gt;+ main(args: String[]): void&lt;/u&gt;" style="text;strokeColor=none;fillColor=none;align=left;verticalAlign=top;spacingLeft=4;spacingRight=4;overflow=hidden;rotatable=0;points=[[0,0.5],[1,0.5]];portConstraint=eastwest;whiteSpace=wrap;html=1;" parent="OUGzcpc-ft89BkLeORVE-5" vertex="1">
          <mxGeometry y="148" width="370" height="102" as="geometry" />
        </mxCell>
        <mxCell id="OUGzcpc-ft89BkLeORVE-9" value="FloorNode" style="swimlane;fontStyle=1;align=center;verticalAlign=top;childLayout=stackLayout;horizontal=1;startSize=26;horizontalStack=0;resizeParent=1;resizeParentMax=0;resizeLast=0;collapsible=1;marginBottom=0;whiteSpace=wrap;html=1;" parent="1" vertex="1">
          <mxGeometry x="910" y="130" width="300" height="186" as="geometry" />
        </mxCell>
        <mxCell id="CccvZBvPhkPoPK1yr44a-7" value="- floor: int&lt;br&gt;- filename: String&lt;br&gt;- rSocket: DatagramSocket&lt;br&gt;- sSocket: DatagramSocket" style="text;strokeColor=none;fillColor=none;align=left;verticalAlign=top;spacingLeft=4;spacingRight=4;overflow=hidden;rotatable=0;points=[[0,0.5],[1,0.5]];portConstraint=eastwest;whiteSpace=wrap;html=1;" parent="OUGzcpc-ft89BkLeORVE-9" vertex="1">
          <mxGeometry y="26" width="300" height="76" as="geometry" />
        </mxCell>
        <mxCell id="OUGzcpc-ft89BkLeORVE-11" value="" style="line;strokeWidth=1;fillColor=none;align=left;verticalAlign=middle;spacingTop=-1;spacingLeft=3;spacingRight=3;rotatable=0;labelPosition=right;points=[];portConstraint=eastwest;strokeColor=inherit;" parent="OUGzcpc-ft89BkLeORVE-9" vertex="1">
          <mxGeometry y="102" width="300" height="8" as="geometry" />
        </mxCell>
        <mxCell id="OUGzcpc-ft89BkLeORVE-12" value="+&amp;nbsp;FloorNode(floor: int, filename: String): FloorNode&lt;br&gt;+ parseData(filename: String): void&lt;br&gt;+ run(): void" style="text;strokeColor=none;fillColor=none;align=left;verticalAlign=top;spacingLeft=4;spacingRight=4;overflow=hidden;rotatable=0;points=[[0,0.5],[1,0.5]];portConstraint=eastwest;whiteSpace=wrap;html=1;" parent="OUGzcpc-ft89BkLeORVE-9" vertex="1">
          <mxGeometry y="110" width="300" height="76" as="geometry" />
        </mxCell>
        <mxCell id="OUGzcpc-ft89BkLeORVE-13" value="SchedulerSystemTest" style="swimlane;fontStyle=1;align=center;verticalAlign=top;childLayout=stackLayout;horizontal=1;startSize=26;horizontalStack=0;resizeParent=1;resizeParentMax=0;resizeLast=0;collapsible=1;marginBottom=0;whiteSpace=wrap;html=1;" parent="1" vertex="1">
          <mxGeometry x="400" y="638" width="320" height="120" as="geometry" />
        </mxCell>
        <mxCell id="OUGzcpc-ft89BkLeORVE-14" value="- Scheduler System: SchedulerSystem" style="text;strokeColor=none;fillColor=none;align=left;verticalAlign=top;spacingLeft=4;spacingRight=4;overflow=hidden;rotatable=0;points=[[0,0.5],[1,0.5]];portConstraint=eastwest;whiteSpace=wrap;html=1;" parent="OUGzcpc-ft89BkLeORVE-13" vertex="1">
          <mxGeometry y="26" width="320" height="34" as="geometry" />
        </mxCell>
        <mxCell id="OUGzcpc-ft89BkLeORVE-15" value="" style="line;strokeWidth=1;fillColor=none;align=left;verticalAlign=middle;spacingTop=-1;spacingLeft=3;spacingRight=3;rotatable=0;labelPosition=right;points=[];portConstraint=eastwest;strokeColor=inherit;" parent="OUGzcpc-ft89BkLeORVE-13" vertex="1">
          <mxGeometry y="60" width="320" height="8" as="geometry" />
        </mxCell>
        <mxCell id="OUGzcpc-ft89BkLeORVE-16" value="+ setUp(): void&lt;br&gt;+ testDataTransfer(): void" style="text;strokeColor=none;fillColor=none;align=left;verticalAlign=top;spacingLeft=4;spacingRight=4;overflow=hidden;rotatable=0;points=[[0,0.5],[1,0.5]];portConstraint=eastwest;whiteSpace=wrap;html=1;" parent="OUGzcpc-ft89BkLeORVE-13" vertex="1">
          <mxGeometry y="68" width="320" height="52" as="geometry" />
        </mxCell>
        <mxCell id="JZciVl0iC011m3xnHKb6-92" style="edgeStyle=orthogonalEdgeStyle;rounded=0;orthogonalLoop=1;jettySize=auto;html=1;fontColor=default;endArrow=diamondThin;endFill=1;endSize=24;" parent="1" source="OUGzcpc-ft89BkLeORVE-18" target="OUGzcpc-ft89BkLeORVE-9" edge="1">
          <mxGeometry relative="1" as="geometry">
            <Array as="points">
              <mxPoint x="1280" y="340" />
              <mxPoint x="1080" y="340" />
            </Array>
          </mxGeometry>
        </mxCell>
        <mxCell id="OUGzcpc-ft89BkLeORVE-18" value="FloorNodeTest" style="swimlane;fontStyle=1;align=center;verticalAlign=top;childLayout=stackLayout;horizontal=1;startSize=26;horizontalStack=0;resizeParent=1;resizeParentMax=0;resizeLast=0;collapsible=1;marginBottom=0;whiteSpace=wrap;html=1;" parent="1" vertex="1">
          <mxGeometry x="1260" y="464" width="320" height="120" as="geometry" />
        </mxCell>
        <mxCell id="OUGzcpc-ft89BkLeORVE-19" value="- subsystem: FloorSubsystem" style="text;strokeColor=none;fillColor=none;align=left;verticalAlign=top;spacingLeft=4;spacingRight=4;overflow=hidden;rotatable=0;points=[[0,0.5],[1,0.5]];portConstraint=eastwest;whiteSpace=wrap;html=1;" parent="OUGzcpc-ft89BkLeORVE-18" vertex="1">
          <mxGeometry y="26" width="320" height="34" as="geometry" />
        </mxCell>
        <mxCell id="OUGzcpc-ft89BkLeORVE-20" value="" style="line;strokeWidth=1;fillColor=none;align=left;verticalAlign=middle;spacingTop=-1;spacingLeft=3;spacingRight=3;rotatable=0;labelPosition=right;points=[];portConstraint=eastwest;strokeColor=inherit;" parent="OUGzcpc-ft89BkLeORVE-18" vertex="1">
          <mxGeometry y="60" width="320" height="8" as="geometry" />
        </mxCell>
        <mxCell id="OUGzcpc-ft89BkLeORVE-21" value="+ testParseDataWithScheduler(): void" style="text;strokeColor=none;fillColor=none;align=left;verticalAlign=top;spacingLeft=4;spacingRight=4;overflow=hidden;rotatable=0;points=[[0,0.5],[1,0.5]];portConstraint=eastwest;whiteSpace=wrap;html=1;" parent="OUGzcpc-ft89BkLeORVE-18" vertex="1">
          <mxGeometry y="68" width="320" height="52" as="geometry" />
        </mxCell>
        <mxCell id="OUGzcpc-ft89BkLeORVE-22" value="ElevatorSubsystemTest" style="swimlane;fontStyle=1;align=center;verticalAlign=top;childLayout=stackLayout;horizontal=1;startSize=26;horizontalStack=0;resizeParent=1;resizeParentMax=0;resizeLast=0;collapsible=1;marginBottom=0;whiteSpace=wrap;html=1;" parent="1" vertex="1">
          <mxGeometry x="-25" y="440" width="320" height="120" as="geometry" />
        </mxCell>
        <mxCell id="OUGzcpc-ft89BkLeORVE-23" value="- elevator: ElevatorSubystem" style="text;strokeColor=none;fillColor=none;align=left;verticalAlign=top;spacingLeft=4;spacingRight=4;overflow=hidden;rotatable=0;points=[[0,0.5],[1,0.5]];portConstraint=eastwest;whiteSpace=wrap;html=1;" parent="OUGzcpc-ft89BkLeORVE-22" vertex="1">
          <mxGeometry y="26" width="320" height="34" as="geometry" />
        </mxCell>
        <mxCell id="OUGzcpc-ft89BkLeORVE-24" value="" style="line;strokeWidth=1;fillColor=none;align=left;verticalAlign=middle;spacingTop=-1;spacingLeft=3;spacingRight=3;rotatable=0;labelPosition=right;points=[];portConstraint=eastwest;strokeColor=inherit;" parent="OUGzcpc-ft89BkLeORVE-22" vertex="1">
          <mxGeometry y="60" width="320" height="8" as="geometry" />
        </mxCell>
        <mxCell id="OUGzcpc-ft89BkLeORVE-25" value="+ setUp(): void&lt;br&gt;+ testElevatorMovement(): void" style="text;strokeColor=none;fillColor=none;align=left;verticalAlign=top;spacingLeft=4;spacingRight=4;overflow=hidden;rotatable=0;points=[[0,0.5],[1,0.5]];portConstraint=eastwest;whiteSpace=wrap;html=1;" parent="OUGzcpc-ft89BkLeORVE-22" vertex="1">
          <mxGeometry y="68" width="320" height="52" as="geometry" />
        </mxCell>
        <mxCell id="JZciVl0iC011m3xnHKb6-95" style="edgeStyle=orthogonalEdgeStyle;rounded=0;orthogonalLoop=1;jettySize=auto;html=1;fontColor=default;endArrow=diamondThin;endFill=1;endSize=24;" parent="1" source="JZciVl0iC011m3xnHKb6-1" target="OUGzcpc-ft89BkLeORVE-1" edge="1">
          <mxGeometry relative="1" as="geometry">
            <Array as="points">
              <mxPoint x="-150" y="680" />
              <mxPoint x="-360" y="680" />
              <mxPoint x="-360" y="380" />
              <mxPoint x="100" y="380" />
            </Array>
          </mxGeometry>
        </mxCell>
        <mxCell id="JZciVl0iC011m3xnHKb6-111" value="1" style="edgeLabel;html=1;align=center;verticalAlign=middle;resizable=0;points=[];fontColor=default;" parent="JZciVl0iC011m3xnHKb6-95" vertex="1" connectable="0">
          <mxGeometry x="-0.9731" y="1" relative="1" as="geometry">
            <mxPoint as="offset" />
          </mxGeometry>
        </mxCell>
        <mxCell id="JZciVl0iC011m3xnHKb6-1" value="ElevatorState" style="swimlane;fontStyle=3;align=center;verticalAlign=top;childLayout=stackLayout;horizontal=1;startSize=26;horizontalStack=0;resizeParent=1;resizeParentMax=0;resizeLast=0;collapsible=1;marginBottom=0;whiteSpace=wrap;html=1;" parent="1" vertex="1">
          <mxGeometry x="-290" y="750" width="280" height="80" as="geometry" />
        </mxCell>
        <mxCell id="JZciVl0iC011m3xnHKb6-3" value="" style="line;strokeWidth=1;fillColor=none;align=left;verticalAlign=middle;spacingTop=-1;spacingLeft=3;spacingRight=3;rotatable=0;labelPosition=right;points=[];portConstraint=eastwest;strokeColor=inherit;" parent="JZciVl0iC011m3xnHKb6-1" vertex="1">
          <mxGeometry y="26" width="280" height="8" as="geometry" />
        </mxCell>
        <mxCell id="JZciVl0iC011m3xnHKb6-4" value="+ handle(context: ElevatorNode): void" style="text;strokeColor=none;fillColor=none;align=left;verticalAlign=top;spacingLeft=4;spacingRight=4;overflow=hidden;rotatable=0;points=[[0,0.5],[1,0.5]];portConstraint=eastwest;whiteSpace=wrap;html=1;" parent="JZciVl0iC011m3xnHKb6-1" vertex="1">
          <mxGeometry y="34" width="280" height="46" as="geometry" />
        </mxCell>
        <mxCell id="JZciVl0iC011m3xnHKb6-26" style="edgeStyle=orthogonalEdgeStyle;rounded=0;orthogonalLoop=1;jettySize=auto;html=1;endArrow=block;endFill=1;endSize=16;" parent="1" source="JZciVl0iC011m3xnHKb6-5" target="JZciVl0iC011m3xnHKb6-1" edge="1">
          <mxGeometry relative="1" as="geometry">
            <Array as="points">
              <mxPoint x="170" y="870" />
              <mxPoint x="-150" y="870" />
            </Array>
          </mxGeometry>
        </mxCell>
        <mxCell id="JZciVl0iC011m3xnHKb6-5" value="&lt;span style=&quot;font-style: normal;&quot;&gt;ElevatorIdleState&lt;/span&gt;" style="swimlane;fontStyle=3;align=center;verticalAlign=top;childLayout=stackLayout;horizontal=1;startSize=26;horizontalStack=0;resizeParent=1;resizeParentMax=0;resizeLast=0;collapsible=1;marginBottom=0;whiteSpace=wrap;html=1;" parent="1" vertex="1">
          <mxGeometry x="30" y="910" width="280" height="80" as="geometry" />
        </mxCell>
        <mxCell id="JZciVl0iC011m3xnHKb6-6" value="" style="line;strokeWidth=1;fillColor=none;align=left;verticalAlign=middle;spacingTop=-1;spacingLeft=3;spacingRight=3;rotatable=0;labelPosition=right;points=[];portConstraint=eastwest;strokeColor=inherit;" parent="JZciVl0iC011m3xnHKb6-5" vertex="1">
          <mxGeometry y="26" width="280" height="8" as="geometry" />
        </mxCell>
        <mxCell id="JZciVl0iC011m3xnHKb6-7" value="+ handle(context: ElevatorNode): void" style="text;strokeColor=none;fillColor=none;align=left;verticalAlign=top;spacingLeft=4;spacingRight=4;overflow=hidden;rotatable=0;points=[[0,0.5],[1,0.5]];portConstraint=eastwest;whiteSpace=wrap;html=1;" parent="JZciVl0iC011m3xnHKb6-5" vertex="1">
          <mxGeometry y="34" width="280" height="46" as="geometry" />
        </mxCell>
        <mxCell id="JZciVl0iC011m3xnHKb6-31" style="edgeStyle=orthogonalEdgeStyle;rounded=0;orthogonalLoop=1;jettySize=auto;html=1;endArrow=block;endFill=1;endSize=16;" parent="1" source="JZciVl0iC011m3xnHKb6-8" target="JZciVl0iC011m3xnHKb6-1" edge="1">
          <mxGeometry relative="1" as="geometry">
            <Array as="points">
              <mxPoint x="170" y="1010" />
              <mxPoint x="-150" y="1010" />
            </Array>
          </mxGeometry>
        </mxCell>
        <mxCell id="JZciVl0iC011m3xnHKb6-8" value="&lt;span style=&quot;font-style: normal;&quot;&gt;ElevatorMovingState&lt;/span&gt;" style="swimlane;fontStyle=3;align=center;verticalAlign=top;childLayout=stackLayout;horizontal=1;startSize=26;horizontalStack=0;resizeParent=1;resizeParentMax=0;resizeLast=0;collapsible=1;marginBottom=0;whiteSpace=wrap;html=1;" parent="1" vertex="1">
          <mxGeometry x="30" y="1030" width="280" height="80" as="geometry" />
        </mxCell>
        <mxCell id="JZciVl0iC011m3xnHKb6-9" value="" style="line;strokeWidth=1;fillColor=none;align=left;verticalAlign=middle;spacingTop=-1;spacingLeft=3;spacingRight=3;rotatable=0;labelPosition=right;points=[];portConstraint=eastwest;strokeColor=inherit;" parent="JZciVl0iC011m3xnHKb6-8" vertex="1">
          <mxGeometry y="26" width="280" height="8" as="geometry" />
        </mxCell>
        <mxCell id="JZciVl0iC011m3xnHKb6-10" value="+ handle(context: ElevatorNode): void" style="text;strokeColor=none;fillColor=none;align=left;verticalAlign=top;spacingLeft=4;spacingRight=4;overflow=hidden;rotatable=0;points=[[0,0.5],[1,0.5]];portConstraint=eastwest;whiteSpace=wrap;html=1;" parent="JZciVl0iC011m3xnHKb6-8" vertex="1">
          <mxGeometry y="34" width="280" height="46" as="geometry" />
        </mxCell>
        <mxCell id="JZciVl0iC011m3xnHKb6-27" style="edgeStyle=orthogonalEdgeStyle;rounded=0;orthogonalLoop=1;jettySize=auto;html=1;endArrow=block;endFill=1;endSize=16;" parent="1" source="JZciVl0iC011m3xnHKb6-11" target="JZciVl0iC011m3xnHKb6-1" edge="1">
          <mxGeometry relative="1" as="geometry">
            <Array as="points">
              <mxPoint x="-470" y="870" />
              <mxPoint x="-150" y="870" />
            </Array>
          </mxGeometry>
        </mxCell>
        <mxCell id="JZciVl0iC011m3xnHKb6-11" value="&lt;span style=&quot;font-style: normal;&quot;&gt;ElevatorDoorOpening&lt;/span&gt;" style="swimlane;fontStyle=3;align=center;verticalAlign=top;childLayout=stackLayout;horizontal=1;startSize=26;horizontalStack=0;resizeParent=1;resizeParentMax=0;resizeLast=0;collapsible=1;marginBottom=0;whiteSpace=wrap;html=1;" parent="1" vertex="1">
          <mxGeometry x="-610" y="910" width="280" height="80" as="geometry" />
        </mxCell>
        <mxCell id="JZciVl0iC011m3xnHKb6-12" value="" style="line;strokeWidth=1;fillColor=none;align=left;verticalAlign=middle;spacingTop=-1;spacingLeft=3;spacingRight=3;rotatable=0;labelPosition=right;points=[];portConstraint=eastwest;strokeColor=inherit;" parent="JZciVl0iC011m3xnHKb6-11" vertex="1">
          <mxGeometry y="26" width="280" height="8" as="geometry" />
        </mxCell>
        <mxCell id="JZciVl0iC011m3xnHKb6-13" value="+ handle(context: ElevatorNode): void" style="text;strokeColor=none;fillColor=none;align=left;verticalAlign=top;spacingLeft=4;spacingRight=4;overflow=hidden;rotatable=0;points=[[0,0.5],[1,0.5]];portConstraint=eastwest;whiteSpace=wrap;html=1;" parent="JZciVl0iC011m3xnHKb6-11" vertex="1">
          <mxGeometry y="34" width="280" height="46" as="geometry" />
        </mxCell>
        <mxCell id="JZciVl0iC011m3xnHKb6-28" style="edgeStyle=orthogonalEdgeStyle;rounded=0;orthogonalLoop=1;jettySize=auto;html=1;endArrow=block;endFill=1;endSize=16;" parent="1" source="JZciVl0iC011m3xnHKb6-14" target="JZciVl0iC011m3xnHKb6-1" edge="1">
          <mxGeometry relative="1" as="geometry">
            <Array as="points">
              <mxPoint x="-470" y="1010" />
              <mxPoint x="-150" y="1010" />
            </Array>
          </mxGeometry>
        </mxCell>
        <mxCell id="JZciVl0iC011m3xnHKb6-14" value="&lt;span style=&quot;font-style: normal;&quot;&gt;ElevatorDoorOpen&lt;/span&gt;" style="swimlane;fontStyle=3;align=center;verticalAlign=top;childLayout=stackLayout;horizontal=1;startSize=26;horizontalStack=0;resizeParent=1;resizeParentMax=0;resizeLast=0;collapsible=1;marginBottom=0;whiteSpace=wrap;html=1;" parent="1" vertex="1">
          <mxGeometry x="-610" y="1030" width="280" height="80" as="geometry" />
        </mxCell>
        <mxCell id="JZciVl0iC011m3xnHKb6-15" value="" style="line;strokeWidth=1;fillColor=none;align=left;verticalAlign=middle;spacingTop=-1;spacingLeft=3;spacingRight=3;rotatable=0;labelPosition=right;points=[];portConstraint=eastwest;strokeColor=inherit;" parent="JZciVl0iC011m3xnHKb6-14" vertex="1">
          <mxGeometry y="26" width="280" height="8" as="geometry" />
        </mxCell>
        <mxCell id="JZciVl0iC011m3xnHKb6-16" value="+ handle(context: ElevatorNode): void" style="text;strokeColor=none;fillColor=none;align=left;verticalAlign=top;spacingLeft=4;spacingRight=4;overflow=hidden;rotatable=0;points=[[0,0.5],[1,0.5]];portConstraint=eastwest;whiteSpace=wrap;html=1;" parent="JZciVl0iC011m3xnHKb6-14" vertex="1">
          <mxGeometry y="34" width="280" height="46" as="geometry" />
        </mxCell>
        <mxCell id="JZciVl0iC011m3xnHKb6-30" style="edgeStyle=orthogonalEdgeStyle;rounded=0;orthogonalLoop=1;jettySize=auto;html=1;endArrow=block;endFill=1;endSize=16;" parent="1" source="JZciVl0iC011m3xnHKb6-17" target="JZciVl0iC011m3xnHKb6-1" edge="1">
          <mxGeometry relative="1" as="geometry">
            <Array as="points">
              <mxPoint x="-470" y="1130" />
              <mxPoint x="-150" y="1130" />
            </Array>
          </mxGeometry>
        </mxCell>
        <mxCell id="JZciVl0iC011m3xnHKb6-17" value="&lt;span style=&quot;font-style: normal;&quot;&gt;ElevatorDoorClosing&lt;/span&gt;" style="swimlane;fontStyle=3;align=center;verticalAlign=top;childLayout=stackLayout;horizontal=1;startSize=26;horizontalStack=0;resizeParent=1;resizeParentMax=0;resizeLast=0;collapsible=1;marginBottom=0;whiteSpace=wrap;html=1;" parent="1" vertex="1">
          <mxGeometry x="-610" y="1150" width="280" height="80" as="geometry" />
        </mxCell>
        <mxCell id="JZciVl0iC011m3xnHKb6-18" value="" style="line;strokeWidth=1;fillColor=none;align=left;verticalAlign=middle;spacingTop=-1;spacingLeft=3;spacingRight=3;rotatable=0;labelPosition=right;points=[];portConstraint=eastwest;strokeColor=inherit;" parent="JZciVl0iC011m3xnHKb6-17" vertex="1">
          <mxGeometry y="26" width="280" height="8" as="geometry" />
        </mxCell>
        <mxCell id="JZciVl0iC011m3xnHKb6-19" value="+ handle(context: ElevatorNode): void" style="text;strokeColor=none;fillColor=none;align=left;verticalAlign=top;spacingLeft=4;spacingRight=4;overflow=hidden;rotatable=0;points=[[0,0.5],[1,0.5]];portConstraint=eastwest;whiteSpace=wrap;html=1;" parent="JZciVl0iC011m3xnHKb6-17" vertex="1">
          <mxGeometry y="34" width="280" height="46" as="geometry" />
        </mxCell>
        <mxCell id="JZciVl0iC011m3xnHKb6-32" style="edgeStyle=orthogonalEdgeStyle;rounded=0;orthogonalLoop=1;jettySize=auto;html=1;endArrow=block;endFill=1;endSize=16;" parent="1" source="JZciVl0iC011m3xnHKb6-20" target="JZciVl0iC011m3xnHKb6-1" edge="1">
          <mxGeometry relative="1" as="geometry">
            <Array as="points">
              <mxPoint x="-470" y="1250" />
              <mxPoint x="-150" y="1250" />
            </Array>
          </mxGeometry>
        </mxCell>
        <mxCell id="JZciVl0iC011m3xnHKb6-20" value="&lt;span style=&quot;font-style: normal;&quot;&gt;ElevatorDoorClosed&lt;/span&gt;" style="swimlane;fontStyle=3;align=center;verticalAlign=top;childLayout=stackLayout;horizontal=1;startSize=26;horizontalStack=0;resizeParent=1;resizeParentMax=0;resizeLast=0;collapsible=1;marginBottom=0;whiteSpace=wrap;html=1;" parent="1" vertex="1">
          <mxGeometry x="-610" y="1270" width="280" height="70" as="geometry" />
        </mxCell>
        <mxCell id="JZciVl0iC011m3xnHKb6-21" value="" style="line;strokeWidth=1;fillColor=none;align=left;verticalAlign=middle;spacingTop=-1;spacingLeft=3;spacingRight=3;rotatable=0;labelPosition=right;points=[];portConstraint=eastwest;strokeColor=inherit;" parent="JZciVl0iC011m3xnHKb6-20" vertex="1">
          <mxGeometry y="26" width="280" height="8" as="geometry" />
        </mxCell>
        <mxCell id="JZciVl0iC011m3xnHKb6-22" value="+ handle(context: ElevatorNode): ElevatorState" style="text;strokeColor=none;fillColor=none;align=left;verticalAlign=top;spacingLeft=4;spacingRight=4;overflow=hidden;rotatable=0;points=[[0,0.5],[1,0.5]];portConstraint=eastwest;whiteSpace=wrap;html=1;" parent="JZciVl0iC011m3xnHKb6-20" vertex="1">
          <mxGeometry y="34" width="280" height="36" as="geometry" />
        </mxCell>
        <mxCell id="JZciVl0iC011m3xnHKb6-33" value="ElevatorDefs" style="swimlane;fontStyle=1;align=center;verticalAlign=top;childLayout=stackLayout;horizontal=1;startSize=26;horizontalStack=0;resizeParent=1;resizeParentMax=0;resizeLast=0;collapsible=1;marginBottom=0;whiteSpace=wrap;html=1;" parent="1" vertex="1">
          <mxGeometry x="-340" y="440" width="280" height="168" as="geometry" />
        </mxCell>
        <mxCell id="JZciVl0iC011m3xnHKb6-34" value="+ ADJACENT_FLOOR_TIME: long (readOnly)&lt;br&gt;+ UNLOADING_TIME: float (readOnly)&lt;br&gt;+ LOADING_TIME: float (readOnly)&lt;br&gt;+ DOOR_OPENING_TIME: float (readOnly)&lt;br&gt;+ DOOR_CLOSING_TIME: float (readOnly)&lt;br&gt;+ ACCELERATION: long (readOnly)&lt;br&gt;+ DECELERATION: long (readOnly)&lt;br&gt;+ MAX_SPEED: long (readOnly)" style="text;strokeColor=none;fillColor=none;align=left;verticalAlign=top;spacingLeft=4;spacingRight=4;overflow=hidden;rotatable=0;points=[[0,0.5],[1,0.5]];portConstraint=eastwest;whiteSpace=wrap;html=1;" parent="JZciVl0iC011m3xnHKb6-33" vertex="1">
          <mxGeometry y="26" width="280" height="134" as="geometry" />
        </mxCell>
        <mxCell id="JZciVl0iC011m3xnHKb6-35" value="" style="line;strokeWidth=1;fillColor=none;align=left;verticalAlign=middle;spacingTop=-1;spacingLeft=3;spacingRight=3;rotatable=0;labelPosition=right;points=[];portConstraint=eastwest;strokeColor=inherit;" parent="JZciVl0iC011m3xnHKb6-33" vertex="1">
          <mxGeometry y="160" width="280" height="8" as="geometry" />
        </mxCell>
        <mxCell id="JZciVl0iC011m3xnHKb6-46" style="edgeStyle=orthogonalEdgeStyle;rounded=0;orthogonalLoop=1;jettySize=auto;html=1;endArrow=diamondThin;endFill=0;endSize=24;" parent="1" source="JZciVl0iC011m3xnHKb6-41" target="JZciVl0iC011m3xnHKb6-37" edge="1">
          <mxGeometry relative="1" as="geometry">
            <mxPoint x="800" y="632" as="targetPoint" />
            <Array as="points">
              <mxPoint x="1320" y="642" />
              <mxPoint x="1145" y="642" />
            </Array>
          </mxGeometry>
        </mxCell>
        <mxCell id="JZciVl0iC011m3xnHKb6-88" style="edgeStyle=orthogonalEdgeStyle;rounded=0;orthogonalLoop=1;jettySize=auto;html=1;fontColor=none;endArrow=diamondThin;endFill=0;endSize=24;" parent="1" source="JZciVl0iC011m3xnHKb6-37" target="OUGzcpc-ft89BkLeORVE-9" edge="1">
          <mxGeometry relative="1" as="geometry">
            <Array as="points">
              <mxPoint x="1120" y="360" />
              <mxPoint x="1060" y="360" />
            </Array>
          </mxGeometry>
        </mxCell>
        <mxCell id="JZciVl0iC011m3xnHKb6-89" style="edgeStyle=orthogonalEdgeStyle;rounded=0;orthogonalLoop=1;jettySize=auto;html=1;fontColor=none;endArrow=diamondThin;endFill=0;endSize=24;" parent="1" source="JZciVl0iC011m3xnHKb6-37" target="OUGzcpc-ft89BkLeORVE-5" edge="1">
          <mxGeometry relative="1" as="geometry">
            <Array as="points">
              <mxPoint x="990" y="400" />
              <mxPoint x="600" y="400" />
            </Array>
          </mxGeometry>
        </mxCell>
        <mxCell id="JZciVl0iC011m3xnHKb6-90" style="edgeStyle=orthogonalEdgeStyle;rounded=0;orthogonalLoop=1;jettySize=auto;html=1;fontColor=default;endArrow=diamondThin;endFill=0;endSize=24;" parent="1" source="JZciVl0iC011m3xnHKb6-37" target="OUGzcpc-ft89BkLeORVE-1" edge="1">
          <mxGeometry relative="1" as="geometry">
            <Array as="points">
              <mxPoint x="1010" y="380" />
              <mxPoint x="180" y="380" />
            </Array>
          </mxGeometry>
        </mxCell>
        <mxCell id="JZciVl0iC011m3xnHKb6-37" value="Event" style="swimlane;fontStyle=1;align=center;verticalAlign=top;childLayout=stackLayout;horizontal=1;startSize=26;horizontalStack=0;resizeParent=1;resizeParentMax=0;resizeLast=0;collapsible=1;marginBottom=0;whiteSpace=wrap;html=1;" parent="1" vertex="1">
          <mxGeometry x="960" y="462" width="280" height="140" as="geometry" />
        </mxCell>
        <mxCell id="JZciVl0iC011m3xnHKb6-38" value="&lt;span&gt;- eventType: EventType&lt;br&gt;- elevatorId: Integer (can be null)&lt;br&gt;&lt;/span&gt;" style="text;strokeColor=none;fillColor=none;align=left;verticalAlign=top;spacingLeft=4;spacingRight=4;overflow=hidden;rotatable=0;points=[[0,0.5],[1,0.5]];portConstraint=eastwest;whiteSpace=wrap;html=1;fontStyle=0" parent="JZciVl0iC011m3xnHKb6-37" vertex="1">
          <mxGeometry y="26" width="280" height="34" as="geometry" />
        </mxCell>
        <mxCell id="JZciVl0iC011m3xnHKb6-39" value="" style="line;strokeWidth=1;fillColor=none;align=left;verticalAlign=middle;spacingTop=-1;spacingLeft=3;spacingRight=3;rotatable=0;labelPosition=right;points=[];portConstraint=eastwest;strokeColor=inherit;" parent="JZciVl0iC011m3xnHKb6-37" vertex="1">
          <mxGeometry y="60" width="280" height="8" as="geometry" />
        </mxCell>
        <mxCell id="JZciVl0iC011m3xnHKb6-40" value="&lt;span&gt;+ Event(event: EventType): void&lt;br&gt;+ Event(event: EventType, elevatorId: int): void&lt;br&gt;+ toString(): String&lt;br&gt;&lt;/span&gt;" style="text;strokeColor=none;fillColor=none;align=left;verticalAlign=top;spacingLeft=4;spacingRight=4;overflow=hidden;rotatable=0;points=[[0,0.5],[1,0.5]];portConstraint=eastwest;whiteSpace=wrap;html=1;fontStyle=0" parent="JZciVl0iC011m3xnHKb6-37" vertex="1">
          <mxGeometry y="68" width="280" height="72" as="geometry" />
        </mxCell>
        <mxCell id="JZciVl0iC011m3xnHKb6-41" value="EventType" style="swimlane;fontStyle=1;align=center;verticalAlign=top;childLayout=stackLayout;horizontal=1;startSize=26;horizontalStack=0;resizeParent=1;resizeParentMax=0;resizeLast=0;collapsible=1;marginBottom=0;whiteSpace=wrap;html=1;" parent="1" vertex="1">
          <mxGeometry x="1200" y="670" width="300" height="278" as="geometry" />
        </mxCell>
        <mxCell id="JZciVl0iC011m3xnHKb6-42" value="&lt;span&gt;&lt;div&gt;- ELEVATOR_IDLE_TOO_LONG,&lt;/div&gt;&lt;div&gt;- ELEVATOR_TRAVERSED_FLOOR,&lt;/div&gt;&lt;div&gt;- ELEVATOR_ARRIVED,&lt;/div&gt;&lt;div&gt;- ELEVATOR_DEPARTED,&lt;/div&gt;&lt;div&gt;- ELEVATOR_LOADING,&lt;/div&gt;&lt;div&gt;- ELEVATOR_UNLOADING,&lt;/div&gt;&lt;div&gt;- ELEVATOR_DOOR_OPENING,&lt;/div&gt;&lt;div&gt;- ELEVATOR_DOOR_OPEN,&lt;/div&gt;&lt;div&gt;- ELEVATOR_DOOR_CLOSING,&lt;/div&gt;&lt;div&gt;- ELEVATOR_DOOR_CLOSED,&lt;/div&gt;&lt;div&gt;- ELEVATOR_RECEIVED_REQUEST,&lt;/div&gt;&lt;div&gt;- SCHEDULER_RECEIVED_FLOOR_REQUEST,&lt;/div&gt;&lt;div&gt;- SCHEDULER_RECEIVED_ELEVATOR_REQUEST,&lt;/div&gt;&lt;div&gt;- SCHEDULER_MOVE_TO_IDLE,&lt;/div&gt;&lt;div&gt;- SENT,&lt;/div&gt;&lt;div&gt;- RECEIVED,&lt;/div&gt;&lt;/span&gt;" style="text;strokeColor=none;fillColor=none;align=left;verticalAlign=top;spacingLeft=4;spacingRight=4;overflow=hidden;rotatable=0;points=[[0,0.5],[1,0.5]];portConstraint=eastwest;whiteSpace=wrap;html=1;fontStyle=0" parent="JZciVl0iC011m3xnHKb6-41" vertex="1">
          <mxGeometry y="26" width="300" height="244" as="geometry" />
        </mxCell>
        <mxCell id="JZciVl0iC011m3xnHKb6-43" value="" style="line;strokeWidth=1;fillColor=none;align=left;verticalAlign=middle;spacingTop=-1;spacingLeft=3;spacingRight=3;rotatable=0;labelPosition=right;points=[];portConstraint=eastwest;strokeColor=inherit;" parent="JZciVl0iC011m3xnHKb6-41" vertex="1">
          <mxGeometry y="270" width="300" height="8" as="geometry" />
        </mxCell>
        <mxCell id="JZciVl0iC011m3xnHKb6-55" value="" style="edgeStyle=orthogonalEdgeStyle;rounded=0;orthogonalLoop=1;jettySize=auto;html=1;endArrow=block;endFill=1;" parent="1" source="JZciVl0iC011m3xnHKb6-47" target="JZciVl0iC011m3xnHKb6-51" edge="1">
          <mxGeometry relative="1" as="geometry">
            <Array as="points">
              <mxPoint x="330" y="530" />
            </Array>
          </mxGeometry>
        </mxCell>
        <mxCell id="JZciVl0iC011m3xnHKb6-81" value="1" style="edgeLabel;html=1;align=center;verticalAlign=middle;resizable=0;points=[];fontColor=default;" parent="JZciVl0iC011m3xnHKb6-55" vertex="1" connectable="0">
          <mxGeometry x="0.2155" relative="1" as="geometry">
            <mxPoint y="46" as="offset" />
          </mxGeometry>
        </mxCell>
        <mxCell id="JZciVl0iC011m3xnHKb6-76" style="edgeStyle=orthogonalEdgeStyle;rounded=0;orthogonalLoop=1;jettySize=auto;html=1;fontColor=none;endArrow=diamondThin;endFill=0;endSize=24;" parent="1" source="JZciVl0iC011m3xnHKb6-47" target="OUGzcpc-ft89BkLeORVE-5" edge="1">
          <mxGeometry relative="1" as="geometry">
            <Array as="points">
              <mxPoint x="500" y="400" />
              <mxPoint x="580" y="400" />
            </Array>
          </mxGeometry>
        </mxCell>
        <mxCell id="JZciVl0iC011m3xnHKb6-120" value="*" style="edgeLabel;html=1;align=center;verticalAlign=middle;resizable=0;points=[];fontSize=11;fontFamily=Helvetica;fontColor=default;" parent="JZciVl0iC011m3xnHKb6-76" vertex="1" connectable="0">
          <mxGeometry x="-0.9" y="-2" relative="1" as="geometry">
            <mxPoint x="-2" y="4" as="offset" />
          </mxGeometry>
        </mxCell>
        <mxCell id="JZciVl0iC011m3xnHKb6-78" style="edgeStyle=orthogonalEdgeStyle;rounded=0;orthogonalLoop=1;jettySize=auto;html=1;fontColor=none;endArrow=diamondThin;endFill=0;endSize=24;" parent="1" source="JZciVl0iC011m3xnHKb6-47" target="OUGzcpc-ft89BkLeORVE-9" edge="1">
          <mxGeometry relative="1" as="geometry">
            <Array as="points">
              <mxPoint x="520" y="420" />
              <mxPoint x="1040" y="420" />
            </Array>
          </mxGeometry>
        </mxCell>
        <mxCell id="JZciVl0iC011m3xnHKb6-122" value="1" style="edgeLabel;html=1;align=center;verticalAlign=middle;resizable=0;points=[];fontSize=11;fontFamily=Helvetica;fontColor=default;" parent="JZciVl0iC011m3xnHKb6-78" vertex="1" connectable="0">
          <mxGeometry x="-0.9693" y="1" relative="1" as="geometry">
            <mxPoint as="offset" />
          </mxGeometry>
        </mxCell>
        <mxCell id="JZciVl0iC011m3xnHKb6-80" style="edgeStyle=orthogonalEdgeStyle;rounded=0;orthogonalLoop=1;jettySize=auto;html=1;fontColor=none;endArrow=diamondThin;endFill=0;endSize=24;" parent="1" source="JZciVl0iC011m3xnHKb6-47" target="OUGzcpc-ft89BkLeORVE-1" edge="1">
          <mxGeometry relative="1" as="geometry">
            <Array as="points">
              <mxPoint x="480" y="400" />
              <mxPoint x="160" y="400" />
            </Array>
          </mxGeometry>
        </mxCell>
        <mxCell id="JZciVl0iC011m3xnHKb6-121" value="*" style="edgeLabel;html=1;align=center;verticalAlign=middle;resizable=0;points=[];fontSize=11;fontFamily=Helvetica;fontColor=default;" parent="JZciVl0iC011m3xnHKb6-80" vertex="1" connectable="0">
          <mxGeometry x="-0.9382" y="1" relative="1" as="geometry">
            <mxPoint y="5" as="offset" />
          </mxGeometry>
        </mxCell>
        <mxCell id="JZciVl0iC011m3xnHKb6-47" value="Instruction" style="swimlane;fontStyle=1;align=center;verticalAlign=top;childLayout=stackLayout;horizontal=1;startSize=26;horizontalStack=0;resizeParent=1;resizeParentMax=0;resizeLast=0;collapsible=1;marginBottom=0;whiteSpace=wrap;html=1;" parent="1" vertex="1">
          <mxGeometry x="400" y="440" width="220" height="180" as="geometry" />
        </mxCell>
        <mxCell id="JZciVl0iC011m3xnHKb6-48" value="- timestamp: int (readOnly)&lt;br&gt;- buttonDirection: Direction&amp;nbsp;&amp;nbsp;(readOnly)&lt;br&gt;- pickupFloor: int&amp;nbsp;&amp;nbsp;(readOnly)&lt;br&gt;- destinationFloor: int&amp;nbsp;&amp;nbsp;(readOnly)" style="text;strokeColor=none;fillColor=none;align=left;verticalAlign=top;spacingLeft=4;spacingRight=4;overflow=hidden;rotatable=0;points=[[0,0.5],[1,0.5]];portConstraint=eastwest;whiteSpace=wrap;html=1;" parent="JZciVl0iC011m3xnHKb6-47" vertex="1">
          <mxGeometry y="26" width="220" height="74" as="geometry" />
        </mxCell>
        <mxCell id="JZciVl0iC011m3xnHKb6-49" value="" style="line;strokeWidth=1;fillColor=none;align=left;verticalAlign=middle;spacingTop=-1;spacingLeft=3;spacingRight=3;rotatable=0;labelPosition=right;points=[];portConstraint=eastwest;strokeColor=inherit;" parent="JZciVl0iC011m3xnHKb6-47" vertex="1">
          <mxGeometry y="100" width="220" height="8" as="geometry" />
        </mxCell>
        <mxCell id="JZciVl0iC011m3xnHKb6-50" value="+ getTimestamp(): int&lt;br&gt;+ getButtonDirection(): Direction&lt;br&gt;+ getPickupFloor(): int&lt;br&gt;+ getDestinationFloor(): int" style="text;strokeColor=none;fillColor=none;align=left;verticalAlign=top;spacingLeft=4;spacingRight=4;overflow=hidden;rotatable=0;points=[[0,0.5],[1,0.5]];portConstraint=eastwest;whiteSpace=wrap;html=1;fontStyle=0" parent="JZciVl0iC011m3xnHKb6-47" vertex="1">
          <mxGeometry y="108" width="220" height="72" as="geometry" />
        </mxCell>
        <mxCell id="JZciVl0iC011m3xnHKb6-51" value="Direction" style="swimlane;fontStyle=1;align=center;verticalAlign=top;childLayout=stackLayout;horizontal=1;startSize=26;horizontalStack=0;resizeParent=1;resizeParentMax=0;resizeLast=0;collapsible=1;marginBottom=0;whiteSpace=wrap;html=1;" parent="1" vertex="1">
          <mxGeometry x="280" y="638" width="100" height="58" as="geometry" />
        </mxCell>
        <mxCell id="JZciVl0iC011m3xnHKb6-52" value="+ DOWN, UP" style="text;strokeColor=none;fillColor=none;align=left;verticalAlign=top;spacingLeft=4;spacingRight=4;overflow=hidden;rotatable=0;points=[[0,0.5],[1,0.5]];portConstraint=eastwest;whiteSpace=wrap;html=1;" parent="JZciVl0iC011m3xnHKb6-51" vertex="1">
          <mxGeometry y="26" width="100" height="24" as="geometry" />
        </mxCell>
        <mxCell id="JZciVl0iC011m3xnHKb6-53" value="" style="line;strokeWidth=1;fillColor=none;align=left;verticalAlign=middle;spacingTop=-1;spacingLeft=3;spacingRight=3;rotatable=0;labelPosition=right;points=[];portConstraint=eastwest;strokeColor=inherit;" parent="JZciVl0iC011m3xnHKb6-51" vertex="1">
          <mxGeometry y="50" width="100" height="8" as="geometry" />
        </mxCell>
        <mxCell id="JZciVl0iC011m3xnHKb6-59" value="altitude of each floor is:&lt;br&gt;floor number * 10 metres" style="text;html=1;align=left;verticalAlign=middle;resizable=0;points=[];autosize=1;strokeColor=none;fillColor=none;" parent="1" vertex="1">
          <mxGeometry x="1210" y="130" width="160" height="40" as="geometry" />
        </mxCell>
        <mxCell id="JZciVl0iC011m3xnHKb6-60" value="floor subsystem should check if&lt;br&gt;an elevator just passed, but&lt;br&gt;the current implementation is&lt;br&gt;going to be a mess (threads),&lt;br&gt;so it&#39;s&amp;nbsp;better to wait until the&lt;br&gt;next iteration to do this with&lt;br&gt;sockets" style="text;html=1;align=left;verticalAlign=middle;resizable=0;points=[];autosize=1;strokeColor=none;fillColor=none;" parent="1" vertex="1">
          <mxGeometry x="1210" y="180" width="190" height="110" as="geometry" />
        </mxCell>
        <mxCell id="JZciVl0iC011m3xnHKb6-84" style="edgeStyle=orthogonalEdgeStyle;rounded=0;orthogonalLoop=1;jettySize=auto;html=1;fontColor=default;endArrow=diamondThin;endFill=1;endSize=24;" parent="1" source="JZciVl0iC011m3xnHKb6-67" target="OUGzcpc-ft89BkLeORVE-5" edge="1">
          <mxGeometry relative="1" as="geometry">
            <Array as="points">
              <mxPoint x="840" y="320" />
              <mxPoint x="680" y="320" />
            </Array>
          </mxGeometry>
        </mxCell>
        <mxCell id="JZciVl0iC011m3xnHKb6-67" value="SchedulerDefs" style="swimlane;fontStyle=1;align=center;verticalAlign=top;childLayout=stackLayout;horizontal=1;startSize=26;horizontalStack=0;resizeParent=1;resizeParentMax=0;resizeLast=0;collapsible=1;marginBottom=0;whiteSpace=wrap;html=1;" parent="1" vertex="1">
          <mxGeometry x="680" y="462" width="260" height="98" as="geometry" />
        </mxCell>
        <mxCell id="JZciVl0iC011m3xnHKb6-68" value="+ PROCESSING_REQUEST_TIME: long (readOnly)&lt;br&gt;+ FAULT_TIME: long(readOnly)" style="text;strokeColor=none;fillColor=none;align=left;verticalAlign=top;spacingLeft=4;spacingRight=4;overflow=hidden;rotatable=0;points=[[0,0.5],[1,0.5]];portConstraint=eastwest;whiteSpace=wrap;html=1;" parent="JZciVl0iC011m3xnHKb6-67" vertex="1">
          <mxGeometry y="26" width="260" height="64" as="geometry" />
        </mxCell>
        <mxCell id="JZciVl0iC011m3xnHKb6-69" value="" style="line;strokeWidth=1;fillColor=none;align=left;verticalAlign=middle;spacingTop=-1;spacingLeft=3;spacingRight=3;rotatable=0;labelPosition=right;points=[];portConstraint=eastwest;strokeColor=inherit;" parent="JZciVl0iC011m3xnHKb6-67" vertex="1">
          <mxGeometry y="90" width="260" height="8" as="geometry" />
        </mxCell>
        <mxCell id="OUGzcpc-ft89BkLeORVE-17" value="" style="endArrow=diamondThin;endFill=1;endSize=24;html=1;rounded=0;edgeStyle=orthogonalEdgeStyle;" parent="1" source="OUGzcpc-ft89BkLeORVE-13" target="OUGzcpc-ft89BkLeORVE-8" edge="1">
          <mxGeometry width="160" relative="1" as="geometry">
            <mxPoint x="685" y="200" as="sourcePoint" />
            <mxPoint x="845" y="200" as="targetPoint" />
            <Array as="points">
              <mxPoint x="640" y="350" />
              <mxPoint x="640" y="350" />
            </Array>
          </mxGeometry>
        </mxCell>
        <mxCell id="OUGzcpc-ft89BkLeORVE-26" value="" style="endArrow=diamondThin;endFill=1;endSize=24;html=1;rounded=0;edgeStyle=orthogonalEdgeStyle;" parent="1" source="OUGzcpc-ft89BkLeORVE-22" target="OUGzcpc-ft89BkLeORVE-4" edge="1">
          <mxGeometry width="160" relative="1" as="geometry">
            <mxPoint x="-50" y="330" as="sourcePoint" />
            <mxPoint x="120" y="420" as="targetPoint" />
            <Array as="points">
              <mxPoint x="140" y="410" />
              <mxPoint x="140" y="410" />
            </Array>
          </mxGeometry>
        </mxCell>
        <mxCell id="JZciVl0iC011m3xnHKb6-72" style="edgeStyle=orthogonalEdgeStyle;rounded=0;orthogonalLoop=1;jettySize=auto;html=1;fontColor=default;endArrow=diamondThin;endFill=1;endSize=24;" parent="1" source="JZciVl0iC011m3xnHKb6-33" target="OUGzcpc-ft89BkLeORVE-4" edge="1">
          <mxGeometry relative="1" as="geometry">
            <Array as="points">
              <mxPoint x="-200" y="400" />
              <mxPoint x="120" y="400" />
            </Array>
          </mxGeometry>
        </mxCell>
        <mxCell id="JZciVl0iC011m3xnHKb6-116" style="edgeStyle=orthogonalEdgeStyle;shape=connector;rounded=0;orthogonalLoop=1;jettySize=auto;html=1;labelBackgroundColor=default;strokeColor=default;fontFamily=Helvetica;fontSize=11;fontColor=default;endArrow=diamondThin;endFill=1;endSize=24;" parent="1" source="JZciVl0iC011m3xnHKb6-98" target="OUGzcpc-ft89BkLeORVE-5" edge="1">
          <mxGeometry relative="1" as="geometry">
            <Array as="points">
              <mxPoint x="790" y="580" />
              <mxPoint x="660" y="580" />
            </Array>
          </mxGeometry>
        </mxCell>
        <mxCell id="JZciVl0iC011m3xnHKb6-98" value="SchedulerState" style="swimlane;fontStyle=3;align=center;verticalAlign=top;childLayout=stackLayout;horizontal=1;startSize=26;horizontalStack=0;resizeParent=1;resizeParentMax=0;resizeLast=0;collapsible=1;marginBottom=0;whiteSpace=wrap;html=1;" parent="1" vertex="1">
          <mxGeometry x="660" y="810" width="280" height="80" as="geometry" />
        </mxCell>
        <mxCell id="JZciVl0iC011m3xnHKb6-99" value="" style="line;strokeWidth=1;fillColor=none;align=left;verticalAlign=middle;spacingTop=-1;spacingLeft=3;spacingRight=3;rotatable=0;labelPosition=right;points=[];portConstraint=eastwest;strokeColor=inherit;" parent="JZciVl0iC011m3xnHKb6-98" vertex="1">
          <mxGeometry y="26" width="280" height="8" as="geometry" />
        </mxCell>
        <mxCell id="JZciVl0iC011m3xnHKb6-100" value="+ handle(): void" style="text;strokeColor=none;fillColor=none;align=left;verticalAlign=top;spacingLeft=4;spacingRight=4;overflow=hidden;rotatable=0;points=[[0,0.5],[1,0.5]];portConstraint=eastwest;whiteSpace=wrap;html=1;" parent="JZciVl0iC011m3xnHKb6-98" vertex="1">
          <mxGeometry y="34" width="280" height="46" as="geometry" />
        </mxCell>
        <mxCell id="JZciVl0iC011m3xnHKb6-113" style="edgeStyle=orthogonalEdgeStyle;shape=connector;rounded=0;orthogonalLoop=1;jettySize=auto;html=1;labelBackgroundColor=default;strokeColor=default;fontFamily=Helvetica;fontSize=11;fontColor=default;endArrow=block;endFill=1;endSize=16;" parent="1" source="JZciVl0iC011m3xnHKb6-102" target="JZciVl0iC011m3xnHKb6-98" edge="1">
          <mxGeometry relative="1" as="geometry" />
        </mxCell>
        <mxCell id="JZciVl0iC011m3xnHKb6-102" value="&lt;span style=&quot;font-style: normal;&quot;&gt;SchedulerIdleState&lt;/span&gt;" style="swimlane;fontStyle=3;align=center;verticalAlign=top;childLayout=stackLayout;horizontal=1;startSize=26;horizontalStack=0;resizeParent=1;resizeParentMax=0;resizeLast=0;collapsible=1;marginBottom=0;whiteSpace=wrap;html=1;" parent="1" vertex="1">
          <mxGeometry x="880" y="970" width="280" height="80" as="geometry" />
        </mxCell>
        <mxCell id="JZciVl0iC011m3xnHKb6-103" value="" style="line;strokeWidth=1;fillColor=none;align=left;verticalAlign=middle;spacingTop=-1;spacingLeft=3;spacingRight=3;rotatable=0;labelPosition=right;points=[];portConstraint=eastwest;strokeColor=inherit;" parent="JZciVl0iC011m3xnHKb6-102" vertex="1">
          <mxGeometry y="26" width="280" height="8" as="geometry" />
        </mxCell>
        <mxCell id="JZciVl0iC011m3xnHKb6-104" value="+ handle(): void" style="text;strokeColor=none;fillColor=none;align=left;verticalAlign=top;spacingLeft=4;spacingRight=4;overflow=hidden;rotatable=0;points=[[0,0.5],[1,0.5]];portConstraint=eastwest;whiteSpace=wrap;html=1;" parent="JZciVl0iC011m3xnHKb6-102" vertex="1">
          <mxGeometry y="34" width="280" height="46" as="geometry" />
        </mxCell>
        <mxCell id="JZciVl0iC011m3xnHKb6-112" style="edgeStyle=orthogonalEdgeStyle;rounded=0;orthogonalLoop=1;jettySize=auto;html=1;fontColor=default;endArrow=block;endFill=1;endSize=16;" parent="1" source="JZciVl0iC011m3xnHKb6-105" target="JZciVl0iC011m3xnHKb6-98" edge="1">
          <mxGeometry relative="1" as="geometry" />
        </mxCell>
        <mxCell id="JZciVl0iC011m3xnHKb6-105" value="&lt;span style=&quot;font-style: normal;&quot;&gt;SchedulerFaultState&lt;/span&gt;" style="swimlane;fontStyle=3;align=center;verticalAlign=top;childLayout=stackLayout;horizontal=1;startSize=26;horizontalStack=0;resizeParent=1;resizeParentMax=0;resizeLast=0;collapsible=1;marginBottom=0;whiteSpace=wrap;html=1;" parent="1" vertex="1">
          <mxGeometry x="400" y="970" width="280" height="80" as="geometry" />
        </mxCell>
        <mxCell id="JZciVl0iC011m3xnHKb6-106" value="" style="line;strokeWidth=1;fillColor=none;align=left;verticalAlign=middle;spacingTop=-1;spacingLeft=3;spacingRight=3;rotatable=0;labelPosition=right;points=[];portConstraint=eastwest;strokeColor=inherit;" parent="JZciVl0iC011m3xnHKb6-105" vertex="1">
          <mxGeometry y="26" width="280" height="8" as="geometry" />
        </mxCell>
        <mxCell id="JZciVl0iC011m3xnHKb6-107" value="+ handle(): void" style="text;strokeColor=none;fillColor=none;align=left;verticalAlign=top;spacingLeft=4;spacingRight=4;overflow=hidden;rotatable=0;points=[[0,0.5],[1,0.5]];portConstraint=eastwest;whiteSpace=wrap;html=1;" parent="JZciVl0iC011m3xnHKb6-105" vertex="1">
          <mxGeometry y="34" width="280" height="46" as="geometry" />
        </mxCell>
        <mxCell id="JZciVl0iC011m3xnHKb6-114" style="edgeStyle=orthogonalEdgeStyle;shape=connector;rounded=0;orthogonalLoop=1;jettySize=auto;html=1;labelBackgroundColor=default;strokeColor=default;fontFamily=Helvetica;fontSize=11;fontColor=default;endArrow=block;endFill=1;endSize=16;" parent="1" source="JZciVl0iC011m3xnHKb6-108" target="JZciVl0iC011m3xnHKb6-98" edge="1">
          <mxGeometry relative="1" as="geometry">
            <Array as="points">
              <mxPoint x="1020" y="1070" />
              <mxPoint x="800" y="1070" />
            </Array>
          </mxGeometry>
        </mxCell>
        <mxCell id="JZciVl0iC011m3xnHKb6-108" value="&lt;span style=&quot;font-style: normal;&quot;&gt;SchedulerProcessingFloorRequestState&lt;/span&gt;" style="swimlane;fontStyle=3;align=center;verticalAlign=top;childLayout=stackLayout;horizontal=1;startSize=26;horizontalStack=0;resizeParent=1;resizeParentMax=0;resizeLast=0;collapsible=1;marginBottom=0;whiteSpace=wrap;html=1;" parent="1" vertex="1">
          <mxGeometry x="880" y="1090" width="280" height="80" as="geometry" />
        </mxCell>
        <mxCell id="JZciVl0iC011m3xnHKb6-109" value="" style="line;strokeWidth=1;fillColor=none;align=left;verticalAlign=middle;spacingTop=-1;spacingLeft=3;spacingRight=3;rotatable=0;labelPosition=right;points=[];portConstraint=eastwest;strokeColor=inherit;" parent="JZciVl0iC011m3xnHKb6-108" vertex="1">
          <mxGeometry y="26" width="280" height="8" as="geometry" />
        </mxCell>
        <mxCell id="JZciVl0iC011m3xnHKb6-110" value="+ handle(): void" style="text;strokeColor=none;fillColor=none;align=left;verticalAlign=top;spacingLeft=4;spacingRight=4;overflow=hidden;rotatable=0;points=[[0,0.5],[1,0.5]];portConstraint=eastwest;whiteSpace=wrap;html=1;" parent="JZciVl0iC011m3xnHKb6-108" vertex="1">
          <mxGeometry y="34" width="280" height="46" as="geometry" />
        </mxCell>
      </root>
    </mxGraphModel>
  </diagram>
</mxfile>
